<svg version="1.1" id="Logos" xmlns="http://www.w3.org/2000/svg" xmlns:xlink="http://www.w3.org/1999/xlink" x="0px"
    y="0px" width="170px" height="158px" viewBox="0 0 170 158" style="enable-background:new 0 0 170 158;"
    xml:space="preserve">
    <style type="text/css">
        .st0 {
            fill: #FFFFFF;
        }

        .st1 {
            fill: #EE0000;
        }

        .st2 {
            fill: #CC0000;
        }

        .st3 {
            fill: #A30000;
        }
    </style>
    <title>Logo-Red_Hat-OpenShift_Dedicated-A-Standard-RGB</title>
    <path class="st1"
        d="M109.3,33.3c5.4,2.5,10.2,6,14.4,10.2l26.6-9.7C125.9-0.3,78.4-8.3,44.1,16.1c-21.7,15.5-33.7,41.3-31.7,68  L39,74.4c2-27.2,25.7-47.6,52.9-45.5C98,29.3,103.9,30.8,109.3,33.3" />
    <path class="st1" d="M27.3,92L2,101.3c2.3,9.3,6.4,18,11.9,25.8l26.6-9.7C33.7,110.4,29.1,101.6,27.3,92" />
    <path class="st1"
        d="M137.7,82c-0.4,5.9-1.9,11.7-4.5,17.1c-11.5,24.8-41,35.5-65.8,24c-5.4-2.5-10.3-6-14.5-10.3l-26.6,9.7  c7.6,10.7,17.8,19.2,29.7,24.8c38.1,17.7,83.4,1.2,101.2-36.9c5.6-11.9,7.9-25,6.9-38L137.7,82z" />
    <path class="st1" d="M144.2,49.5L119,58.7c4.7,8.5,6.9,18.2,6.2,27.9l26.6-9.7C151,67.4,148.5,58.1,144.2,49.5" />
    <path class="st2" d="M50.2,70.3L23.5,80c0.3,4.3,1.1,8.5,2.1,12.6L51,83.4C50.2,79.1,49.9,74.7,50.2,70.3" />
    <path class="st2" d="M167.9,40.9c-1.9-3.8-4-7.5-6.5-11l-26.6,9.7c3.1,3.1,5.7,6.7,7.8,10.5L167.9,40.9z" />
    <path class="st2"
        d="M26.5,122.5c2.1,2.9,4.3,5.6,6.8,8.2l28.9-10.6c-3.3-2.1-6.4-4.5-9.2-7.4L26.5,122.5z M164.3,72.3L137.7,82  c-0.3,3.9-1,7.7-2.2,11.4l28.9-10.6C164.6,79.4,164.6,75.9,164.3,72.3" />
    <path class="st3" d="M50.1,75.7c-0.1-1.8,0-3.6,0.1-5.4L23.5,80c0.1,1.7,0.4,3.4,0.6,5.1L50.1,75.7z" />
    <path class="st3" d="M164,33.9c-0.8-1.4-1.7-2.7-2.6-4l-26.6,9.7c1.2,1.2,2.3,2.5,3.3,3.8L164,33.9z" />
</svg>
